# xmcd
#
# Track frame offsets: 
#        150
#        10650
#        17450
#        28995
#        39065
#        52790
#        63658
#        71333
#        79533
#        95991
#        105769
#        116707
#        124980
#        139808
#
# Disc length: 2027 seconds
#
# Revision: 0
# Processed by: cddbd v1.5.2PL0 Copyright (c) Steve Scherf et al.
# Submitted via: ExactAudioCopy v0.99pb4
#
DISCID=ac07e90e
DTITLE=Christian Williams - To the Trees
DYEAR=2008
DGENRE=Folk
TTITLE0=Judas
TTITLE1=Bison Jump
TTITLE2=Out of Line
TTITLE3=Troubadour
TTITLE4=The Trail
TTITLE5=The Recluse Anna Brown
TTITLE6=Too Late
TTITLE7=Flood
TTITLE8=When the Smoke Clears
TTITLE9=30 Minutes
TTITLE10=Back in the Morning
TTITLE11=Let's Step Outside
TTITLE12=Lake Effect
TTITLE13=To the Trees
EXTD=
EXTT0=
EXTT1=
EXTT2=
EXTT3=
EXTT4=
EXTT5=
EXTT6=
EXTT7=
EXTT8=
EXTT9=
EXTT10=
EXTT11=
EXTT12=
EXTT13=
PLAYORDER=
